<svg width="222" height="143" viewBox="0 0 222 143" fill="none" xmlns="http://www.w3.org/2000/svg">
<path d="M42.4267 27.0221L3.94666 117.359V0.986206H42.4267V27.0221ZM43.216 143H3.94666L63.5413 0.986206H103.008L43.216 143ZM58.608 131.757L81.104 79.0938L103.6 143H62.16L58.608 131.757Z" fill="#C6C6C6"/>
<path d="M155.978 77.9103V116.964H157.952C164.529 116.964 169.331 115.781 172.357 113.414C175.514 110.915 177.093 106.576 177.093 100.396C177.093 94.7414 175.58 90.3366 172.554 87.1807C178.606 85.8656 184.131 84.1565 189.13 82.0524C194.129 79.9483 198.339 77.187 201.76 73.7683C207.285 77.0558 211.232 81.2634 213.6 86.3917C215.968 91.3883 217.152 97.5689 217.152 104.932C217.152 117.161 212.678 126.563 203.733 133.138C194.787 139.712 181.171 143 162.885 143H117.498V37.8703H155.978V59.3697H157.754C163.674 59.3697 167.95 58.2518 170.581 56.0166C173.344 53.6497 174.725 49.5732 174.725 43.7876C174.725 37.8703 173.344 33.794 170.581 31.5586C167.95 29.1917 163.674 28.0083 157.754 28.0083H117.498L106.645 0.986206H165.845C181.763 0.986206 193.34 4.27356 200.576 10.8483C207.811 17.423 211.429 26.6276 211.429 38.4621C211.429 45.9572 209.718 52.269 206.298 57.3972C203.009 62.3939 198.602 66.4048 193.077 69.429C187.552 72.4532 181.566 74.6228 175.12 75.9379C168.673 77.253 162.293 77.9103 155.978 77.9103Z" fill="#7391D5"/>
</svg>
